<mxfile host="app.diagrams.net" modified="2021-05-16T15:54:41.419Z" agent="5.0 (Windows NT 10.0; Win64; x64) AppleWebKit/537.36 (KHTML, like Gecko) Chrome/90.0.4430.212 Safari/537.36" etag="DZLvrzT6cwsvGhY4JM6N" version="14.3.1" type="github">
  <diagram name="Page-1" id="74b105a0-9070-1c63-61bc-23e55f88626e">
    <mxGraphModel dx="1102" dy="857" grid="1" gridSize="10" guides="1" tooltips="1" connect="1" arrows="1" fold="1" page="1" pageScale="1.5" pageWidth="1169" pageHeight="826" background="none" math="0" shadow="0">
      <root>
        <mxCell id="0" style=";html=1;" />
        <mxCell id="1" style=";html=1;" parent="0" />
        <mxCell id="Jzqj3Imx_29mwsuUbFxc-2" value="&lt;font style=&quot;font-size: 18px&quot;&gt;Analytical Portal&lt;/font&gt;" style="ellipse;whiteSpace=wrap;html=1;aspect=fixed;" vertex="1" parent="1">
          <mxGeometry x="640" y="520" width="150" height="150" as="geometry" />
        </mxCell>
        <mxCell id="Jzqj3Imx_29mwsuUbFxc-3" value="Generate Random Data" style="ellipse;whiteSpace=wrap;html=1;aspect=fixed;" vertex="1" parent="1">
          <mxGeometry x="480" y="520" width="80" height="80" as="geometry" />
        </mxCell>
        <mxCell id="Jzqj3Imx_29mwsuUbFxc-4" value="Manually Enter Data" style="ellipse;whiteSpace=wrap;html=1;aspect=fixed;" vertex="1" parent="1">
          <mxGeometry x="480" y="660" width="80" height="80" as="geometry" />
        </mxCell>
        <mxCell id="Jzqj3Imx_29mwsuUbFxc-6" value="&lt;font style=&quot;font-size: 18px&quot;&gt;Faculty&lt;/font&gt;" style="rounded=0;whiteSpace=wrap;html=1;" vertex="1" parent="1">
          <mxGeometry x="80" y="300" width="140" height="410" as="geometry" />
        </mxCell>
        <mxCell id="Jzqj3Imx_29mwsuUbFxc-9" value="&lt;font style=&quot;font-size: 14px&quot;&gt;Attendance&lt;/font&gt;" style="ellipse;whiteSpace=wrap;html=1;aspect=fixed;" vertex="1" parent="1">
          <mxGeometry x="310" y="590" width="80" height="80" as="geometry" />
        </mxCell>
        <mxCell id="Jzqj3Imx_29mwsuUbFxc-10" value="&lt;font style=&quot;font-size: 14px&quot;&gt;Grades&lt;/font&gt;" style="ellipse;whiteSpace=wrap;html=1;aspect=fixed;" vertex="1" parent="1">
          <mxGeometry x="310" y="410" width="80" height="80" as="geometry" />
        </mxCell>
        <mxCell id="Jzqj3Imx_29mwsuUbFxc-18" value="&lt;font style=&quot;font-size: 18px&quot;&gt;Dashboard&lt;/font&gt;" style="ellipse;whiteSpace=wrap;html=1;aspect=fixed;" vertex="1" parent="1">
          <mxGeometry x="510" y="170" width="150" height="150" as="geometry" />
        </mxCell>
        <mxCell id="Jzqj3Imx_29mwsuUbFxc-23" value="" style="endArrow=classic;html=1;exitX=1.021;exitY=0.354;exitDx=0;exitDy=0;exitPerimeter=0;" edge="1" parent="1" source="Jzqj3Imx_29mwsuUbFxc-6" target="Jzqj3Imx_29mwsuUbFxc-10">
          <mxGeometry width="50" height="50" relative="1" as="geometry">
            <mxPoint x="220" y="420" as="sourcePoint" />
            <mxPoint x="270" y="370" as="targetPoint" />
          </mxGeometry>
        </mxCell>
        <mxCell id="Jzqj3Imx_29mwsuUbFxc-24" value="" style="endArrow=classic;html=1;entryX=0;entryY=0.5;entryDx=0;entryDy=0;exitX=1;exitY=0.768;exitDx=0;exitDy=0;exitPerimeter=0;" edge="1" parent="1" source="Jzqj3Imx_29mwsuUbFxc-6" target="Jzqj3Imx_29mwsuUbFxc-9">
          <mxGeometry width="50" height="50" relative="1" as="geometry">
            <mxPoint x="220" y="630" as="sourcePoint" />
            <mxPoint x="270" y="580" as="targetPoint" />
          </mxGeometry>
        </mxCell>
        <mxCell id="Jzqj3Imx_29mwsuUbFxc-25" value="" style="endArrow=classic;html=1;entryX=0;entryY=0;entryDx=0;entryDy=0;" edge="1" parent="1" source="Jzqj3Imx_29mwsuUbFxc-10" target="Jzqj3Imx_29mwsuUbFxc-4">
          <mxGeometry width="50" height="50" relative="1" as="geometry">
            <mxPoint x="380" y="500" as="sourcePoint" />
            <mxPoint x="430" y="450" as="targetPoint" />
          </mxGeometry>
        </mxCell>
        <mxCell id="Jzqj3Imx_29mwsuUbFxc-26" value="" style="endArrow=classic;html=1;entryX=0.013;entryY=0.675;entryDx=0;entryDy=0;entryPerimeter=0;" edge="1" parent="1" target="Jzqj3Imx_29mwsuUbFxc-4">
          <mxGeometry width="50" height="50" relative="1" as="geometry">
            <mxPoint x="380" y="655" as="sourcePoint" />
            <mxPoint x="440" y="610" as="targetPoint" />
          </mxGeometry>
        </mxCell>
        <mxCell id="Jzqj3Imx_29mwsuUbFxc-29" value="" style="endArrow=classic;html=1;exitX=0;exitY=0.6;exitDx=0;exitDy=0;exitPerimeter=0;entryX=1.014;entryY=0.105;entryDx=0;entryDy=0;entryPerimeter=0;" edge="1" parent="1" source="Jzqj3Imx_29mwsuUbFxc-18" target="Jzqj3Imx_29mwsuUbFxc-6">
          <mxGeometry width="50" height="50" relative="1" as="geometry">
            <mxPoint x="310" y="290" as="sourcePoint" />
            <mxPoint x="360" y="240" as="targetPoint" />
          </mxGeometry>
        </mxCell>
        <mxCell id="Jzqj3Imx_29mwsuUbFxc-31" value="" style="endArrow=classic;html=1;exitX=1;exitY=0.5;exitDx=0;exitDy=0;" edge="1" parent="1" source="Jzqj3Imx_29mwsuUbFxc-3" target="Jzqj3Imx_29mwsuUbFxc-2">
          <mxGeometry width="50" height="50" relative="1" as="geometry">
            <mxPoint x="870" y="530" as="sourcePoint" />
            <mxPoint x="940" y="520" as="targetPoint" />
          </mxGeometry>
        </mxCell>
        <mxCell id="Jzqj3Imx_29mwsuUbFxc-32" value="" style="endArrow=classic;html=1;exitX=0.925;exitY=0.238;exitDx=0;exitDy=0;exitPerimeter=0;entryX=0.053;entryY=0.787;entryDx=0;entryDy=0;entryPerimeter=0;" edge="1" parent="1" source="Jzqj3Imx_29mwsuUbFxc-4" target="Jzqj3Imx_29mwsuUbFxc-2">
          <mxGeometry width="50" height="50" relative="1" as="geometry">
            <mxPoint x="930" y="820" as="sourcePoint" />
            <mxPoint x="1019.0799999999999" y="500" as="targetPoint" />
            <Array as="points" />
          </mxGeometry>
        </mxCell>
        <mxCell id="Jzqj3Imx_29mwsuUbFxc-34" value="&lt;font style=&quot;font-size: 18px&quot;&gt;Tableau&lt;/font&gt;" style="rounded=0;whiteSpace=wrap;html=1;" vertex="1" parent="1">
          <mxGeometry x="877" y="220" width="140" height="60" as="geometry" />
        </mxCell>
        <mxCell id="Jzqj3Imx_29mwsuUbFxc-35" value="&lt;font style=&quot;font-size: 14px&quot;&gt;Filters&lt;/font&gt;" style="ellipse;whiteSpace=wrap;html=1;aspect=fixed;" vertex="1" parent="1">
          <mxGeometry x="440" y="330" width="80" height="80" as="geometry" />
        </mxCell>
        <mxCell id="Jzqj3Imx_29mwsuUbFxc-37" value="" style="endArrow=classic;html=1;exitX=0.8;exitY=0.075;exitDx=0;exitDy=0;exitPerimeter=0;" edge="1" parent="1" source="Jzqj3Imx_29mwsuUbFxc-35" target="Jzqj3Imx_29mwsuUbFxc-18">
          <mxGeometry width="50" height="50" relative="1" as="geometry">
            <mxPoint x="550" y="350" as="sourcePoint" />
            <mxPoint x="600" y="300" as="targetPoint" />
          </mxGeometry>
        </mxCell>
        <mxCell id="Jzqj3Imx_29mwsuUbFxc-45" value="" style="endArrow=classic;html=1;exitX=0;exitY=0.75;exitDx=0;exitDy=0;entryX=1;entryY=0.5;entryDx=0;entryDy=0;" edge="1" parent="1" source="Jzqj3Imx_29mwsuUbFxc-34" target="Jzqj3Imx_29mwsuUbFxc-59">
          <mxGeometry width="50" height="50" relative="1" as="geometry">
            <mxPoint x="550" y="470" as="sourcePoint" />
            <mxPoint x="800" y="265" as="targetPoint" />
          </mxGeometry>
        </mxCell>
        <mxCell id="Jzqj3Imx_29mwsuUbFxc-46" value="" style="endArrow=classic;html=1;exitX=0.987;exitY=0.413;exitDx=0;exitDy=0;exitPerimeter=0;entryX=0;entryY=0.4;entryDx=0;entryDy=0;entryPerimeter=0;" edge="1" parent="1" source="Jzqj3Imx_29mwsuUbFxc-18" target="Jzqj3Imx_29mwsuUbFxc-59">
          <mxGeometry width="50" height="50" relative="1" as="geometry">
            <mxPoint x="710" y="210" as="sourcePoint" />
            <mxPoint x="720" y="235" as="targetPoint" />
          </mxGeometry>
        </mxCell>
        <mxCell id="Jzqj3Imx_29mwsuUbFxc-48" value="" style="endArrow=classic;html=1;exitX=0;exitY=0;exitDx=0;exitDy=0;entryX=0.25;entryY=1;entryDx=0;entryDy=0;" edge="1" parent="1" source="Jzqj3Imx_29mwsuUbFxc-51" target="Jzqj3Imx_29mwsuUbFxc-34">
          <mxGeometry width="50" height="50" relative="1" as="geometry">
            <mxPoint x="970" y="402" as="sourcePoint" />
            <mxPoint x="900" y="350" as="targetPoint" />
          </mxGeometry>
        </mxCell>
        <mxCell id="Jzqj3Imx_29mwsuUbFxc-51" value="&lt;font style=&quot;font-size: 18px&quot;&gt;AWS RDS&lt;/font&gt;" style="html=1;dashed=0;whitespace=wrap;shape=partialRectangle;right=0;" vertex="1" parent="1">
          <mxGeometry x="930" y="430" width="120" height="60" as="geometry" />
        </mxCell>
        <mxCell id="Jzqj3Imx_29mwsuUbFxc-53" value="" style="endArrow=classic;html=1;exitX=1;exitY=0.5;exitDx=0;exitDy=0;entryX=-0.037;entryY=0.663;entryDx=0;entryDy=0;entryPerimeter=0;" edge="1" parent="1" source="Jzqj3Imx_29mwsuUbFxc-9" target="Jzqj3Imx_29mwsuUbFxc-3">
          <mxGeometry width="50" height="50" relative="1" as="geometry">
            <mxPoint x="550" y="450" as="sourcePoint" />
            <mxPoint x="600" y="400" as="targetPoint" />
          </mxGeometry>
        </mxCell>
        <mxCell id="Jzqj3Imx_29mwsuUbFxc-54" value="" style="endArrow=classic;html=1;exitX=1;exitY=0.588;exitDx=0;exitDy=0;exitPerimeter=0;entryX=0;entryY=0;entryDx=0;entryDy=0;" edge="1" parent="1" source="Jzqj3Imx_29mwsuUbFxc-10" target="Jzqj3Imx_29mwsuUbFxc-3">
          <mxGeometry width="50" height="50" relative="1" as="geometry">
            <mxPoint x="420" y="460" as="sourcePoint" />
            <mxPoint x="470" y="410" as="targetPoint" />
          </mxGeometry>
        </mxCell>
        <mxCell id="Jzqj3Imx_29mwsuUbFxc-55" value="" style="endArrow=classic;html=1;exitX=0.993;exitY=0.607;exitDx=0;exitDy=0;exitPerimeter=0;entryX=0.15;entryY=1.017;entryDx=0;entryDy=0;entryPerimeter=0;" edge="1" parent="1" source="Jzqj3Imx_29mwsuUbFxc-2" target="Jzqj3Imx_29mwsuUbFxc-51">
          <mxGeometry width="50" height="50" relative="1" as="geometry">
            <mxPoint x="940" y="630" as="sourcePoint" />
            <mxPoint x="920" y="680" as="targetPoint" />
          </mxGeometry>
        </mxCell>
        <mxCell id="Jzqj3Imx_29mwsuUbFxc-57" value="" style="endArrow=classic;html=1;" edge="1" parent="1" source="Jzqj3Imx_29mwsuUbFxc-10">
          <mxGeometry width="50" height="50" relative="1" as="geometry">
            <mxPoint x="300" y="400" as="sourcePoint" />
            <mxPoint x="439" y="380" as="targetPoint" />
          </mxGeometry>
        </mxCell>
        <mxCell id="Jzqj3Imx_29mwsuUbFxc-59" value="Update" style="ellipse;whiteSpace=wrap;html=1;aspect=fixed;" vertex="1" parent="1">
          <mxGeometry x="720" y="210" width="80" height="80" as="geometry" />
        </mxCell>
        <mxCell id="Jzqj3Imx_29mwsuUbFxc-60" value="" style="endArrow=classic;html=1;entryX=0;entryY=0.25;entryDx=0;entryDy=0;exitX=1;exitY=0;exitDx=0;exitDy=0;" edge="1" parent="1" source="Jzqj3Imx_29mwsuUbFxc-59" target="Jzqj3Imx_29mwsuUbFxc-34">
          <mxGeometry width="50" height="50" relative="1" as="geometry">
            <mxPoint x="550" y="450" as="sourcePoint" />
            <mxPoint x="600" y="400" as="targetPoint" />
          </mxGeometry>
        </mxCell>
        <mxCell id="Jzqj3Imx_29mwsuUbFxc-61" value="" style="endArrow=classic;html=1;entryX=1.007;entryY=0.553;entryDx=0;entryDy=0;entryPerimeter=0;exitX=0.013;exitY=0.738;exitDx=0;exitDy=0;exitPerimeter=0;" edge="1" parent="1" source="Jzqj3Imx_29mwsuUbFxc-59" target="Jzqj3Imx_29mwsuUbFxc-18">
          <mxGeometry width="50" height="50" relative="1" as="geometry">
            <mxPoint x="510" y="450" as="sourcePoint" />
            <mxPoint x="560" y="400" as="targetPoint" />
          </mxGeometry>
        </mxCell>
        <mxCell id="Jzqj3Imx_29mwsuUbFxc-62" value="" style="endArrow=classic;html=1;exitX=0.775;exitY=0.075;exitDx=0;exitDy=0;exitPerimeter=0;entryX=0.5;entryY=1;entryDx=0;entryDy=0;" edge="1" parent="1" source="Jzqj3Imx_29mwsuUbFxc-9" target="Jzqj3Imx_29mwsuUbFxc-35">
          <mxGeometry width="50" height="50" relative="1" as="geometry">
            <mxPoint x="600" y="470" as="sourcePoint" />
            <mxPoint x="650" y="420" as="targetPoint" />
          </mxGeometry>
        </mxCell>
      </root>
    </mxGraphModel>
  </diagram>
</mxfile>
